<svg width="139" height="139" viewBox="0 0 139 139" fill="none" xmlns="http://www.w3.org/2000/svg">
<path d="M36.3935 99.1192C36.0141 99.1192 35.7055 99.0481 35.4683 98.9057C35.2312 98.8109 35.1361 98.5735 35.1837 98.194C35.1837 98.0517 35.2548 97.8382 35.3972 97.5535C35.5395 97.2689 35.6343 97.0554 35.6818 96.913C35.919 96.2489 36.1325 95.5845 36.3224 94.9203C36.5122 94.2086 36.7018 93.5445 36.8917 92.9276C37.5558 90.318 38.1727 87.7324 38.7421 85.1703C39.3114 82.5607 39.7621 79.9514 40.0943 77.3418C40.1891 76.6777 40.2602 75.9185 40.3078 75.0644C40.3553 74.1629 40.3789 73.2141 40.3789 72.2177C40.3789 69.9403 40.1418 67.5206 39.6673 64.9586C39.1927 62.3965 38.2675 60.309 36.8917 58.6958H31.4829C30.7713 58.6958 29.7749 58.7433 28.4939 58.8381C27.2603 58.9329 25.9793 59.1464 24.6508 59.4787C23.3698 59.8109 22.3023 60.3563 21.4482 61.1155C20.5942 61.8747 20.2147 62.8947 20.3096 64.1757C20.357 64.5552 20.4994 65.0773 20.7366 65.7414C20.9738 66.3583 21.1399 66.7378 21.2347 66.8801L20.4519 67.4495C20.1672 66.9277 19.8114 66.3344 19.3844 65.6703C18.9574 64.9586 18.5778 64.2705 18.2457 63.6064C17.9136 62.9423 17.7238 62.4441 17.6763 62.1119C17.6289 61.6373 17.6526 61.0207 17.7475 60.2615C17.8424 59.5023 18.222 58.8381 18.8862 58.2688C19.5979 57.6519 20.5705 57.2488 21.8041 57.0589C23.0851 56.8691 24.3898 56.7743 25.7183 56.7743C26.9994 56.7743 28.2328 56.8218 29.4191 56.9166C30.6053 57.0114 31.5777 57.0589 32.337 57.0589C32.337 57.0589 32.8827 57.0589 33.9738 57.0589C35.065 57.0589 36.4411 57.0589 38.1016 57.0589C39.8096 57.0114 41.6124 56.9878 43.5103 56.9878C45.4082 56.9878 47.1399 56.9878 48.7056 56.9878L47.2111 58.8381C45.7877 58.8381 44.3643 58.8381 42.941 58.8381C41.5652 58.7906 40.1654 58.767 38.7421 58.767C40.2602 59.7633 41.3753 61.068 42.087 62.6812C42.8462 64.2944 43.3444 65.9786 43.5815 67.7341C43.8186 69.4897 43.9373 71.1266 43.9373 72.6447C43.9373 73.2616 43.9137 73.8546 43.8662 74.4239C43.8662 74.9933 43.8662 75.4915 43.8662 75.9185C43.7714 78.1483 43.4628 80.8291 42.941 83.9604C42.4192 87.0918 41.7548 90.0573 40.9483 92.8564C42.514 90.6739 44.2695 88.0882 46.2147 85.0991C48.2074 82.0625 50.4373 78.8839 52.9045 75.5626C55.419 72.1941 58.1473 68.944 61.0888 65.8126C62.2751 64.5791 63.5322 63.3217 64.8607 62.0407C66.1893 60.7597 67.6126 59.6922 69.1308 58.8381C70.649 57.9841 72.2858 57.5571 74.0414 57.5571C75.5596 57.5571 76.7222 57.7943 77.5286 58.2688L77.1016 59.0516C76.9117 59.0041 76.7221 58.9805 76.5323 58.9805C76.3899 58.9329 76.2001 58.9093 75.9629 58.9093C74.6344 58.9093 73.211 59.3127 71.6929 60.1192C70.222 60.9256 69.0833 61.7324 68.2768 62.5389C66.8059 64.0098 65.6672 65.7651 64.8607 67.8053C64.0542 69.798 63.461 71.9331 63.0815 74.2104C62.7493 76.4403 62.4886 78.7176 62.2987 81.0426C62.1088 83.3199 61.9192 85.4786 61.7293 87.5188C61.587 89.5591 61.3023 91.3383 60.8753 92.8564C62.8205 90.1045 65.2166 86.8308 68.0633 83.0353C70.9575 79.2397 74.2549 75.3016 77.9556 71.2214C81.6564 67.0936 85.7129 63.1794 90.1254 59.4787C91.0269 58.7194 92.1892 57.8654 93.6126 56.9166C95.0835 55.9678 96.6253 55.161 98.2385 54.4969C99.899 53.7852 101.465 53.4294 102.936 53.4294C104.311 53.4294 105.261 53.6665 105.782 54.1411C106.352 54.6156 106.636 55.2322 106.636 55.9914C106.636 56.893 106.352 57.8893 105.782 58.9805C105.261 60.0716 104.857 60.9732 104.572 61.6849C104.525 61.8272 104.311 61.922 103.932 61.9695C103.552 62.0171 103.386 61.9459 103.434 61.756C103.529 61.3766 103.624 60.9256 103.718 60.4038C103.861 59.8345 103.932 59.2652 103.932 58.6958C103.932 57.9366 103.79 57.2488 103.505 56.6319C103.22 56.0151 102.675 55.6592 101.868 55.5644C101.726 55.5169 101.583 55.4932 101.441 55.4932C101.299 55.4932 101.156 55.4932 101.014 55.4932C99.6855 55.4932 98.2385 55.9678 96.6728 56.9166C95.1071 57.8182 93.3043 59.0992 91.2641 60.7597C87.2786 63.9386 83.4592 67.4495 79.806 71.2925C76.1528 75.0881 72.6892 79.0735 69.4155 83.2488C67.7074 85.3838 66.047 87.5425 64.4337 89.7251C62.8205 91.9076 61.326 94.185 59.9501 96.5572C59.8553 96.7471 59.7603 96.9606 59.6655 97.1977C59.6179 97.4824 59.5468 97.6959 59.452 97.8382C59.3572 97.933 59.0725 98.0753 58.5979 98.2652C58.1234 98.5023 57.6491 98.6922 57.1746 98.8346C56.7476 99.0244 56.4629 99.1192 56.3206 99.1192C55.9411 99.1192 55.6325 99.0481 55.3954 98.9057C55.1583 98.8109 55.0632 98.5735 55.1107 98.194C55.1107 98.0517 55.1819 97.8382 55.3242 97.5535C55.4665 97.2689 55.5613 97.0554 55.6089 96.913C55.846 96.2489 56.0595 95.5845 56.2494 94.9203C56.4393 94.2086 56.6289 93.5445 56.8187 92.9276C57.3881 90.8401 57.7915 88.6339 58.0286 86.309C58.3133 83.9841 58.5743 81.6594 58.8114 79.3345C59.0961 76.9624 59.5231 74.685 60.0925 72.5024C60.6618 70.3198 61.5395 68.351 62.7257 66.5955C61.7769 67.1648 60.4247 68.5645 58.6691 70.7944C56.9135 72.9769 54.7785 75.6338 52.264 78.7652C51.41 79.8091 50.4612 81.1137 49.4173 82.6794C48.3734 84.1976 47.3059 85.8108 46.2147 87.5188C45.1708 89.1793 44.1508 90.8162 43.1545 92.4294C42.2057 93.9951 41.3989 95.371 40.7348 96.5572C40.64 96.7471 40.5449 96.9606 40.4501 97.1977C40.4026 97.4824 40.3314 97.6959 40.2366 97.8382C40.1418 97.933 39.786 98.0753 39.1691 98.2652C38.5997 98.5023 38.0304 98.6922 37.461 98.8346C36.8917 99.0244 36.5359 99.1192 36.3935 99.1192ZM81.1298 96.9842C80.7976 96.9842 80.5369 96.8894 80.347 96.6995C80.1571 96.5572 80.1571 96.4385 80.347 96.3437C81.3909 96.1538 82.2922 95.7743 83.0514 95.205C83.8106 94.5881 84.4272 93.8292 84.9017 92.9276C85.8981 91.2671 86.8708 89.6063 87.8196 87.9459C88.816 86.2378 89.7648 84.5298 90.6664 82.8218C91.7575 80.7343 92.8726 78.6465 94.0113 76.559C95.1499 74.4239 96.2886 72.3125 97.4273 70.225C98.5185 68.2799 99.4912 66.4056 100.345 64.6028C101.199 62.7999 101.84 61.495 102.267 60.6885C102.599 60.0716 103.168 59.5262 103.975 59.0516C104.829 58.5298 105.659 58.1265 106.466 57.8418C106.181 57.8418 105.896 57.8418 105.612 57.8418C105.327 57.7943 105.019 57.7706 104.686 57.7706C103.216 57.7706 101.603 57.8654 99.847 58.0553C98.139 58.1976 96.4546 58.4348 94.7941 58.767C93.1809 59.0992 91.7575 59.5498 90.524 60.1192C89.2905 60.6885 88.4601 61.3766 88.0331 62.183C87.8433 62.61 87.6773 63.0371 87.535 63.4641C87.3926 63.8911 87.3215 64.3181 87.3215 64.7451C87.3215 65.8362 87.7009 66.6191 88.4601 67.0936C88.5077 67.0936 88.5313 67.1412 88.5313 67.236C88.5313 67.3308 88.4365 67.4258 88.2466 67.5206C88.1043 67.6154 87.9856 67.6393 87.8908 67.5918C87.4163 67.3547 86.8708 66.7853 86.2539 65.8838C85.6846 64.935 85.3051 64.1521 85.1153 63.5352C84.9729 62.9659 84.9017 62.4441 84.9017 61.9695C84.9017 60.736 85.3051 59.787 86.1116 59.1228C86.9181 58.4111 87.9383 57.913 89.1718 57.6283C90.4053 57.2961 91.6627 57.1065 92.9437 57.0589C94.2723 56.9641 95.4346 56.9166 96.431 56.9166C97.9491 56.9166 99.7522 56.9166 101.84 56.9166C103.927 56.8691 105.849 56.8454 107.604 56.8454C108.031 56.8454 108.506 56.8454 109.028 56.8454C109.55 56.7979 110.095 56.7743 110.665 56.7743C111.946 56.7743 113.274 56.8454 114.65 56.9878C116.026 57.1301 117.283 57.4384 118.422 57.913C119.561 58.3875 120.438 59.1228 121.055 60.1192C122.004 61.5901 122.478 63.1558 122.478 64.8163C122.478 66.6666 121.933 68.4222 120.842 70.0827C119.798 71.6959 118.469 73.1193 116.856 74.3528C115.243 75.5863 113.606 76.5353 111.946 77.1995C110.38 77.8164 108.624 78.2434 106.679 78.4805C104.781 78.7176 103.073 78.8364 101.555 78.8364C101.081 78.8364 100.606 78.8364 100.132 78.8364C99.7047 78.7888 99.3252 78.7416 98.993 78.694C98.8982 78.694 98.8507 78.6465 98.8507 78.5517C98.8507 78.3618 99.0406 78.101 99.42 77.7688C99.7995 77.3894 100.108 77.2231 100.345 77.2707C100.725 77.3182 101.104 77.3418 101.484 77.3418C101.863 77.3418 102.267 77.3418 102.694 77.3418C104.497 77.3418 106.418 77.1047 108.458 76.6301C110.499 76.1556 112.373 75.2543 114.081 73.9258C115.836 72.5499 117.164 70.5572 118.066 67.9476C118.303 67.3783 118.446 66.809 118.493 66.2396C118.588 65.6227 118.635 65.0298 118.635 64.4604C118.635 62.8472 118.232 61.4238 117.426 60.1903C116.619 58.9568 115.456 58.2452 113.938 58.0553C113.748 58.0078 113.535 57.9841 113.298 57.9841C113.061 57.9841 112.823 57.9841 112.586 57.9841C111.685 57.9841 110.688 58.1028 109.597 58.34C108.553 58.5771 107.77 59.028 107.249 59.6922C106.062 61.2579 104.924 63.0371 103.832 65.0298C102.741 66.9749 101.697 68.9676 100.701 71.0079C99.7047 73.0006 98.7559 74.8746 97.8543 76.6301C97.6172 77.1047 97.1663 77.9587 96.5021 79.1922C95.838 80.3784 95.1024 81.7542 94.2959 83.3199C93.4894 84.8381 92.7302 86.3565 92.0185 87.8747C91.3069 89.3928 90.7375 90.745 90.3105 91.9313C89.931 93.1175 89.836 93.924 90.0258 94.351C90.0734 94.3985 90.097 94.4697 90.097 94.5645C90.097 94.7068 90.0258 94.778 89.8835 94.778C89.504 94.778 89.1243 94.6832 88.7448 94.4933C88.3654 94.3034 87.9144 94.2086 87.3926 94.2086C86.9181 94.2086 86.4438 94.3273 85.9693 94.5645C85.4947 94.7544 84.8781 95.1102 84.1189 95.632C83.3597 96.1538 82.5057 96.5808 81.5569 96.913C81.4621 96.9606 81.3197 96.9842 81.1298 96.9842Z" fill="white"/>
</svg>
