<svg width="450" height="429" viewBox="0 0 450 429" fill="none" xmlns="http://www.w3.org/2000/svg">
<path d="M317.066 242.888C317.066 296.154 250.884 339.328 169.239 339.328C87.5962 339.328 21.4102 296.154 21.4102 242.888C21.4102 189.625 87.5962 146.448 169.239 146.448C250.882 146.448 317.066 189.625 317.066 242.888Z" fill="#FBB041"/>
<path d="M169.238 341.627C86.3974 341.627 19 297.335 19 242.888C19 188.446 86.3974 144.152 169.238 144.152C252.078 144.152 319.476 188.447 319.476 242.888C319.475 297.335 252.079 341.627 169.238 341.627ZM169.238 148.745C89.0533 148.745 23.8186 190.979 23.8186 242.888C23.8186 294.801 89.0533 337.036 169.238 337.036C249.424 337.036 314.66 294.801 314.66 242.888C314.66 190.979 249.424 148.745 169.238 148.745Z" fill="#3C2517"/>
<path d="M168.334 308.626C245.822 308.626 308.639 272.321 308.639 227.536C308.639 182.752 245.822 146.447 168.334 146.447C90.8462 146.447 28.0297 182.752 28.0297 227.536C28.0297 272.321 90.8462 308.626 168.334 308.626Z" fill="#FFE989"/>
<path d="M168.334 310.923C89.6464 310.923 25.6258 273.513 25.6258 227.535C25.6258 181.559 89.6473 144.151 168.334 144.151C247.028 144.151 311.046 181.558 311.046 227.535C311.046 273.515 247.027 310.923 168.334 310.923ZM168.334 148.745C92.2978 148.745 30.4399 184.091 30.4399 227.537C30.4399 270.984 92.2969 306.331 168.334 306.331C244.368 306.331 306.229 270.984 306.229 227.537C306.229 184.091 244.368 148.745 168.334 148.745Z" fill="#3C2517"/>
<g opacity="0.7">
<path d="M31.7224 248.366C30.9196 248.366 30.1393 247.988 29.683 247.298C28.9729 246.225 29.3068 244.808 30.4309 244.129L193.352 145.936C194.472 145.257 195.963 145.577 196.673 146.65C197.382 147.722 197.048 149.14 195.924 149.818L33.0049 248.012C32.6044 248.252 32.1607 248.366 31.7224 248.366Z" fill="#DA9C28"/>
</g>
<g opacity="0.7">
<path d="M55.5202 278.039C54.7876 278.039 54.0622 277.722 53.5888 277.12C52.7923 276.101 53.0101 274.667 54.0748 273.904L225.173 151.932C226.242 151.172 227.749 151.38 228.545 152.395C229.342 153.41 229.124 154.849 228.059 155.608L56.9611 277.583C56.5282 277.891 56.0215 278.039 55.5202 278.039Z" fill="#DA9C28"/>
</g>
<g opacity="0.7">
<path d="M28.0342 221.65C27.208 221.65 26.4061 221.247 25.9588 220.52C25.2784 219.429 25.66 218.022 26.8084 217.377L156.473 144.471C157.617 143.824 159.094 144.192 159.771 145.282C160.448 146.375 160.065 147.783 158.921 148.428L29.2564 221.331C28.8721 221.547 28.4518 221.65 28.0342 221.65Z" fill="#DA9C28"/>
</g>
<g opacity="0.7">
<path d="M96.6772 300.296C95.9833 300.296 95.2912 300.009 94.8169 299.455C93.9727 298.474 94.1248 297.027 95.1544 296.222L261.832 166.108C262.863 165.306 264.38 165.448 265.223 166.432C266.067 167.413 265.915 168.859 264.885 169.664L98.2054 299.776C97.7563 300.124 97.2163 300.296 96.6772 300.296Z" fill="#DA9C28"/>
</g>
<g opacity="0.7">
<path d="M163.295 310.923C162.693 310.923 162.091 310.707 161.623 310.274C160.666 309.394 160.639 307.94 161.567 307.028L286.519 183.82C287.441 182.913 288.967 182.885 289.923 183.767C290.879 184.651 290.904 186.103 289.979 187.016L165.028 310.224C164.557 310.69 163.927 310.923 163.295 310.923Z" fill="#DA9C28"/>
</g>
<g opacity="0.7">
<path d="M253.891 294.088C253.554 294.088 253.211 294.024 252.883 293.873L38.1952 199.057C36.9901 198.525 36.4627 197.155 37.0225 196.006C37.5832 194.855 39.0115 194.358 40.222 194.889L254.904 289.708C256.116 290.242 256.641 291.607 256.08 292.758C255.676 293.596 254.804 294.088 253.891 294.088Z" fill="#DA9C28"/>
</g>
<g opacity="0.7">
<path d="M288.247 271.951C287.919 271.951 287.585 271.886 287.266 271.752L62.3899 175.839C61.1731 175.322 60.6313 173.964 61.1731 172.806C61.7185 171.65 63.1459 171.132 64.3537 171.65L289.23 267.557C290.444 268.075 290.989 269.434 290.448 270.592C290.048 271.445 289.168 271.951 288.247 271.951Z" fill="#DA9C28"/>
</g>
<g opacity="0.7">
<path d="M306.113 245.186C305.772 245.186 305.426 245.118 305.098 244.972L104.691 155.85C103.487 155.314 102.965 153.947 103.529 152.798C104.089 151.65 105.523 151.152 106.731 151.688L307.135 240.808C308.34 241.345 308.861 242.709 308.298 243.861C307.888 244.696 307.021 245.186 306.113 245.186Z" fill="#DA9C28"/>
</g>
<g opacity="0.7">
<path d="M230.734 302.467C230.225 302.467 229.708 302.312 229.271 301.994C228.215 301.226 228.014 299.781 228.823 298.775L300.629 209.393L151.728 148.558C150.509 148.06 149.942 146.709 150.467 145.542C150.989 144.379 152.408 143.834 153.63 144.337L305.371 206.334C306.058 206.613 306.566 207.179 306.754 207.863C306.942 208.548 306.787 209.275 306.337 209.842L232.648 301.569C232.173 302.161 231.458 302.467 230.734 302.467Z" fill="#DA9C28"/>
</g>
<g opacity="0.7">
<path d="M191.82 310.054C191.468 310.054 191.113 309.982 190.779 309.829L26.9938 235.012C25.7923 234.464 25.2856 233.094 25.8607 231.949C26.4358 230.806 27.8722 230.325 29.071 230.874L192.859 305.688C194.058 306.236 194.565 307.605 193.992 308.748C193.578 309.577 192.714 310.054 191.82 310.054Z" fill="#DA9C28"/>
</g>
<path d="M169.238 310.923C90.5473 310.923 26.5294 273.517 26.5294 227.538C26.5294 181.558 90.5482 144.151 169.238 144.151C247.932 144.151 311.95 181.558 311.95 227.538C311.95 273.518 247.931 310.923 169.238 310.923ZM169.238 148.745C93.2014 148.745 31.3435 184.091 31.3435 227.54C31.3435 270.985 93.2005 306.33 169.238 306.33C245.272 306.33 307.131 270.985 307.131 227.54C307.132 184.091 245.272 148.745 169.238 148.745Z" fill="#3C2517"/>
<g opacity="0.4">
<path d="M155.69 168.262C155.69 168.262 149.667 179.168 137.625 175.152C125.582 171.132 107.518 159.651 99.6886 168.262C91.8631 176.875 79.2154 182.039 85.8394 189.503C92.4643 196.964 103.302 188.355 103.904 192.948C104.506 197.538 94.2706 200.409 81.0208 203.854C67.7737 207.299 46.0954 206.725 50.3119 223.946C54.5284 241.168 65.3653 242.888 64.1611 253.797C62.9569 264.703 61.9282 266.115 55.5175 275.743C49.1068 285.371 35.8597 303.166 54.5275 312.924C73.1935 322.683 85.8385 327.849 92.4634 335.888C99.0847 343.922 109.323 355.977 124.377 355.977C139.431 355.977 156.291 346.794 179.174 350.811C202.055 354.833 208.076 358.272 221.324 339.328C234.572 320.387 229.153 304.887 215.302 289.964C201.452 275.034 195.134 260.684 208.832 257.241C222.53 253.795 226.274 253.415 228.918 235.236C231.56 217.057 244.207 222.224 253.237 235.428C262.271 248.63 268.636 254.773 285.151 253.797C301.669 252.822 310.046 252.285 308.637 230.259C307.227 208.236 319.475 202.705 293.582 196.389C267.688 190.076 259.862 189.502 246.614 183.186C233.364 176.874 244.204 172.343 227.345 165.135C210.485 157.928 199.644 149.318 188.807 152.762C177.971 156.207 152.678 152.762 155.69 168.262Z" fill="#F89521"/>
</g>
<path d="M186.774 181.797C186.774 181.797 165.711 170.59 160.782 181.797C155.851 193.002 158.126 194.452 150.543 198.424C142.958 202.401 129.687 202.762 136.512 209.632C143.337 216.498 155.472 224.696 166.47 222.766C177.467 220.839 191.498 219.03 191.498 208.545C191.498 198.067 194.186 182.522 186.774 181.797Z" fill="#F8ED34"/>
<path d="M415.45 261.87C434.523 211.809 387.779 149.685 311.042 123.113C234.306 96.541 156.637 115.582 137.563 165.643C118.489 215.704 165.234 277.827 241.97 304.4C318.707 330.972 396.376 311.93 415.45 261.87Z" fill="#FBB041"/>
<path d="M311.055 318.689C288.265 318.689 264.103 314.492 241.175 306.554C203.608 293.55 171.905 271.746 151.903 245.166C131.704 218.327 125.813 189.804 135.314 164.856C148.487 130.285 189.369 108.809 242.007 108.809C264.793 108.809 288.96 113.004 311.884 120.941C389.75 147.899 437.238 211.464 417.745 262.64C404.576 297.212 363.694 318.689 311.055 318.689ZM242.007 113.402C191.449 113.402 152.303 133.719 139.846 166.426C130.899 189.904 136.571 216.918 155.817 242.49C175.26 268.328 206.157 289.546 242.82 302.24C265.226 309.997 288.818 314.096 311.054 314.096C361.607 314.096 400.755 293.778 413.215 261.074C431.801 212.278 385.609 151.353 310.237 125.259C287.835 117.5 264.243 113.402 242.007 113.402Z" fill="#3C2517"/>
<path d="M413.052 244.681C397.018 286.774 324.977 300.46 252.144 275.24C179.309 250.027 133.269 195.46 149.303 153.366C165.337 111.271 237.379 97.5896 310.212 122.805C383.046 148.022 429.09 202.586 413.052 244.681Z" fill="#FFE989"/>
<path d="M323.927 290.179C300.577 290.179 275.471 285.76 251.318 277.398C215.69 265.063 185.216 245.417 165.523 222.075C145.547 198.405 138.984 173.727 147.038 152.584C157.706 124.584 191.87 107.868 238.433 107.868C261.779 107.868 286.888 112.287 311.038 120.648C346.67 132.986 377.14 152.635 396.836 175.977C416.808 199.645 423.371 224.326 415.315 245.467C404.651 273.462 370.485 290.179 323.927 290.179ZM238.433 112.46C194.649 112.46 161.364 128.434 151.568 154.15C144.109 173.725 150.396 196.825 169.276 219.195C188.426 241.891 218.148 261.029 252.966 273.083C276.592 281.264 301.129 285.586 323.926 285.586C367.709 285.586 400.991 269.613 410.79 243.897C418.246 224.323 411.959 201.226 393.083 178.853C373.933 156.157 344.209 137.018 309.389 124.965C285.763 116.784 261.226 112.46 238.433 112.46Z" fill="#3C2517"/>
<g opacity="0.7">
<path d="M146.131 174.282C145.023 174.282 144.026 173.549 143.779 172.477C143.496 171.238 144.319 170.013 145.618 169.74L333.912 130.464C335.208 130.196 336.497 130.977 336.781 132.216C337.064 133.455 336.241 134.679 334.941 134.95L146.648 174.228C146.474 174.266 146.301 174.282 146.131 174.282Z" fill="#DA9C28"/>
</g>
<g opacity="0.7">
<path d="M157.878 209.92C156.844 209.92 155.886 209.277 155.573 208.289C155.185 207.072 155.907 205.79 157.181 205.424L361.675 146.456C362.945 146.086 364.293 146.776 364.677 147.989C365.063 149.203 364.343 150.485 363.067 150.852L158.573 209.818C158.343 209.885 158.108 209.92 157.878 209.92Z" fill="#DA9C28"/>
</g>
<g opacity="0.7">
<path d="M152.231 147.969C151.092 147.969 150.081 147.199 149.866 146.094C149.622 144.847 150.484 143.648 151.793 143.416L299.77 117.086C301.096 116.847 302.339 117.676 302.582 118.921C302.825 120.168 301.964 121.367 300.656 121.6L152.675 147.931C152.529 147.958 152.377 147.969 152.231 147.969Z" fill="#DA9C28"/>
</g>
<g opacity="0.7">
<path d="M188.596 244.232C187.602 244.232 186.673 243.643 186.324 242.697C185.883 241.499 186.542 240.19 187.798 239.77L391.055 171.713C392.306 171.295 393.682 171.921 394.123 173.118C394.567 174.315 393.906 175.625 392.65 176.045L189.395 244.102C189.13 244.193 188.858 244.232 188.596 244.232Z" fill="#DA9C28"/>
</g>
<g opacity="0.7">
<path d="M247.409 275.9C246.518 275.9 245.66 275.426 245.245 274.613C244.662 273.474 245.156 272.097 246.351 271.543L407.916 196.394C409.124 195.84 410.555 196.317 411.136 197.454C411.72 198.591 411.223 199.97 410.028 200.524L248.466 275.668C248.122 275.826 247.766 275.9 247.409 275.9Z" fill="#DA9C28"/>
</g>
<g opacity="0.7">
<path d="M338.593 289.56C337.978 289.56 337.365 289.337 336.893 288.892L169.056 129.903C168.111 129.009 168.107 127.555 169.044 126.653C169.983 125.757 171.507 125.751 172.452 126.643L340.288 285.637C341.234 286.53 341.237 287.983 340.301 288.882C339.83 289.335 339.209 289.56 338.593 289.56Z" fill="#DA9C28"/>
</g>
<g opacity="0.7">
<path d="M378.81 279.933C378.204 279.933 377.602 279.716 377.134 279.287L200.108 115.956C199.153 115.073 199.127 113.62 200.051 112.71C200.978 111.796 202.503 111.773 203.456 112.656L380.485 275.985C381.441 276.866 381.466 278.321 380.539 279.234C380.068 279.7 379.438 279.933 378.81 279.933Z" fill="#DA9C28"/>
</g>
<g opacity="0.7">
<path d="M405.187 260.587C404.57 260.587 403.956 260.366 403.484 259.918L247.027 110.933C246.084 110.037 246.084 108.582 247.027 107.686C247.964 106.787 249.489 106.789 250.431 107.685L406.889 256.669C407.831 257.564 407.831 259.019 406.889 259.918C406.421 260.367 405.804 260.587 405.187 260.587Z" fill="#DA9C28"/>
</g>
<g opacity="0.7">
<path d="M313.825 289.898C313.032 289.898 312.254 289.522 311.794 288.839C311.079 287.77 311.403 286.352 312.525 285.667L412.021 225.021L293.853 119.386C292.881 118.518 292.829 117.065 293.742 116.14C294.656 115.214 296.175 115.168 297.144 116.035L417.574 223.69C418.118 224.176 418.397 224.87 418.328 225.577C418.26 226.281 417.851 226.918 417.227 227.3L315.123 289.536C314.719 289.782 314.269 289.898 313.825 289.898Z" fill="#DA9C28"/>
</g>
<g opacity="0.7">
<path d="M274.529 284.363C273.906 284.363 273.28 284.131 272.809 283.673L145.652 160.054C144.718 159.149 144.733 157.696 145.684 156.808C146.635 155.918 148.159 155.932 149.089 156.84L276.246 280.46C277.179 281.368 277.165 282.818 276.214 283.706C275.745 284.145 275.137 284.363 274.529 284.363Z" fill="#DA9C28"/>
</g>
<path d="M324.776 290.475C301.428 290.475 276.321 286.055 252.168 277.694C178.202 252.085 131.424 196.091 147.89 152.876C158.556 124.876 192.721 108.158 239.279 108.158C262.63 108.158 287.735 112.578 311.884 120.94C347.516 133.276 377.987 152.925 397.683 176.266C417.656 199.938 424.221 224.615 416.165 245.76C405.5 273.759 371.338 290.475 324.776 290.475ZM239.279 112.752C195.498 112.752 162.213 128.729 152.416 154.445C136.861 195.281 182.347 248.631 253.815 273.378C277.442 281.557 301.981 285.88 324.777 285.88C368.56 285.88 401.843 269.908 411.64 244.192C419.097 224.617 412.806 201.52 393.933 179.147C374.78 156.45 345.057 137.312 310.24 125.257C286.611 117.076 262.072 112.752 239.279 112.752Z" fill="#3C2517"/>
<g opacity="0.4">
<path d="M290.517 139.194C290.517 139.194 280.951 147.486 271.072 139.789C261.191 132.093 248.324 115.423 237.882 120.968C227.44 126.515 213.705 127.258 217.259 136.427C220.813 145.596 234.083 141.032 233.005 145.542C231.928 150.056 221.275 149.422 207.591 148.349C193.909 147.275 173.739 139.681 171.533 157.239C169.33 174.798 178.898 179.942 173.861 189.803C168.825 199.666 167.35 200.658 157.88 207.62C148.408 214.583 129.583 226.996 143.635 242.245C157.686 257.494 167.722 266.462 171.07 276.171C174.418 285.88 179.722 300.547 193.873 305.444C208.023 310.342 227.161 307.198 247.229 318.419C267.298 329.643 271.723 334.844 290.959 321.347C310.192 307.851 310.649 291.519 302.976 272.984C295.305 254.447 294.503 238.901 308.611 240.121C322.719 241.34 326.374 242.198 335.367 225.975C344.363 209.747 354.401 218.719 358.161 234.071C361.924 249.421 365.707 257.263 381.58 261.723C397.454 266.18 405.522 268.4 412.081 247.243C418.643 226.084 432.138 224.87 410.06 210.508C387.985 196.145 380.832 193.061 370.638 182.811C360.451 172.565 372.26 171.837 358.993 159.575C345.726 147.314 338.623 135.693 327.2 135.403C315.775 135.114 293.238 123.647 290.517 139.194Z" fill="#F89521"/>
</g>
<path d="M314.887 162.031C314.887 162.031 299.103 144.645 290.456 153.574C281.81 162.503 283.431 164.603 274.876 165.872C266.325 167.143 253.72 163.161 257.68 171.838C261.636 180.519 270.108 192.17 281.133 193.934C292.162 195.699 305.996 198.568 309.747 188.713C313.501 178.861 321.598 165.124 314.887 162.031Z" fill="#F8ED34"/>
</svg>
